<?xml version="1.0" encoding="utf-8"?>
<!-- Generator: Adobe Illustrator 23.0.1, SVG Export Plug-In . SVG Version: 6.00 Build 0)  -->
<svg version="1.1" id="Capa_1" xmlns="http://www.w3.org/2000/svg" xmlns:xlink="http://www.w3.org/1999/xlink" x="0px" y="0px"
	 viewBox="0 0 55 55" style="enable-background:new 0 0 55 55;" xml:space="preserve">
<style type="text/css">
	.st0{fill:#3ABCA7;}
	.st1{fill:#FFFFFF;}
	.st2{fill:#EDDCC7;}
	.st3{fill:#D75A4A;}
	.st4{fill:#F29C21;}
	.st5{fill:#D6C4B1;}
	.st6{fill:#A34740;}
	.st7{fill:#E18C25;}
	.st8{fill:#5E5E5E;}
</style>
<g>
	<path class="st0" d="M44,52H8.7c-4.6,0-8.4-3.7-8.4-8.4V8.4C0.4,3.7,4.1,0,8.7,0H44c4.6,0,8.4,3.7,8.4,8.4v35.3
		C52.4,48.3,48.6,52,44,52z"/>
	<path class="st1" d="M44.4,14h-18c-0.6,0-1-0.4-1-1s0.4-1,1-1h18c0.6,0,1,0.4,1,1S44.9,14,44.4,14z"/>
	<path class="st1" d="M44.4,28h-18c-0.6,0-1-0.4-1-1s0.4-1,1-1h18c0.6,0,1,0.4,1,1S44.9,28,44.4,28z"/>
	<path class="st1" d="M44.4,42h-18c-0.6,0-1-0.4-1-1s0.4-1,1-1h18c0.6,0,1,0.4,1,1S44.9,42,44.4,42z"/>
	<path class="st1" d="M12.4,17c-0.2,0-0.4-0.1-0.6-0.2l-4.6-3.4c-0.4-0.3-0.5-1-0.2-1.4c0.3-0.4,1-0.5,1.4-0.2l3.8,2.9l6.2-7.3
		c0.4-0.4,1-0.5,1.4-0.1c0.4,0.4,0.5,1,0.1,1.4l-6.9,8C13,16.9,12.7,17,12.4,17z"/>
	<path class="st1" d="M12.4,31c-0.2,0-0.4-0.1-0.6-0.2l-4.6-3.4c-0.4-0.3-0.5-1-0.2-1.4c0.3-0.4,1-0.5,1.4-0.2l3.8,2.9l6.2-7.3
		c0.4-0.4,1-0.5,1.4-0.1c0.4,0.4,0.5,1,0.1,1.4l-6.9,8C13,30.9,12.7,31,12.4,31z"/>
	<path class="st1" d="M12.4,46c-0.2,0-0.4-0.1-0.6-0.2l-4.6-3.4c-0.4-0.3-0.5-1-0.2-1.4c0.3-0.4,1-0.5,1.4-0.2l3.8,2.9l6.2-7.3
		c0.4-0.4,1-0.5,1.4-0.1c0.4,0.4,0.5,1,0.1,1.4l-6.9,8C13,45.9,12.7,46,12.4,46z"/>
	<g>
		<polygon class="st2" points="33.2,45.5 33.2,45.5 31.2,52.8 35.8,48.1 		"/>
		<path class="st3" d="M52.4,31.5l-1.2-1.2c-0.8-0.8-2-0.8-2.8,0l-3.6,3.6l2.7,2.7L52.4,31.5z"/>
		
			<rect x="32.1" y="39.1" transform="matrix(0.7071 -0.7071 0.7071 0.7071 -17.1853 40.5243)" class="st4" width="16.4" height="3.7"/>
		<polygon class="st5" points="38.8,51.2 38.8,51.1 35.8,48.1 31.2,52.8 31.1,53.3 		"/>
		<path class="st6" d="M50.5,39.5L54,36c0.8-0.8,0.8-2,0-2.8l-1.6-1.6l-5,5L50.5,39.5z"/>
		
			<rect x="34.9" y="41.7" transform="matrix(0.7071 -0.7071 0.7071 0.7071 -18.3582 43.3523)" class="st7" width="16.4" height="4.3"/>
		<path class="st8" d="M30.4,55c-0.3,0-0.5-0.1-0.7-0.3c-0.4-0.4-0.4-1,0-1.4l2.2-2.2c0.4-0.4,1-0.4,1.4,0s0.4,1,0,1.4l-2.2,2.2
			C30.9,54.9,30.6,55,30.4,55z"/>
	</g>
</g>
</svg>
