<svg height="512pt" viewBox="0 0 512 512" width="512pt" xmlns="http://www.w3.org/2000/svg"><path d="m416 512h-320c-53.023438 0-96-42.976562-96-96v-320c0-53.023438 42.976562-96 96-96h320c53.023438 0 96 42.976562 96 96v320c0 53.023438-42.976562 96-96 96zm0 0" fill="#ffe6e2"/><path d="m354.671875 128h-197.34375c-16.175781 0-29.328125 13.152344-29.328125 29.328125v197.328125c0 16.191406 13.152344 29.34375 29.328125 29.34375h197.328125c16.191406 0 29.34375-13.152344 29.34375-29.328125v-197.34375c0-16.175781-13.152344-29.328125-29.328125-29.328125zm-51.535156 160.0625c4.160156 4.160156 4.160156 10.929688 0 15.089844-2.082031 2.078125-4.816407 3.121094-7.535157 3.121094-2.738281 0-5.457031-1.042969-7.539062-3.121094l-32.0625-32.0625-32.046875 32.0625c-2.082031 2.078125-4.816406 3.121094-7.539063 3.121094-2.71875 0-5.453124-1.042969-7.535156-3.121094-4.160156-4.160156-4.160156-10.914063 0-15.089844l32.03125-32.0625-32.046875-32.0625c-4.160156-4.160156-4.160156-10.929688 0-15.089844 4.160157-4.160156 10.914063-4.160156 15.089844 0l32.046875 32.0625 32.046875-32.0625c4.160156-4.160156 10.914063-4.160156 15.089844 0 4.160156 4.160156 4.160156 10.914063 0 15.089844l-32.046875 32.0625zm0 0" fill="#fc573b"/></svg>